<?xml version="1.0" encoding="UTF-8"?>
<svg width="1000px" height="300px" viewBox="0 0 1000 300" version="1.1" xmlns="http://www.w3.org/2000/svg">
    <g stroke="none" stroke-width="1" fill="none" fill-rule="evenodd">
        <path d="M179.5,50 L179.5,250 L20.5,250 L20.5,50 L179.5,50 Z M159.5,70 L40.5,70 L40.5,230 L159.5,230 L159.5,70 Z" fill="#A88BF1" fill-rule="nonzero"></path>
        <path d="M179.5,50 L179.5,250 L20.5,250 L20.5,50 L179.5,50 Z M159.5,70 L40.5,70 L40.5,230 L159.5,230 L159.5,70 Z" stroke="#A88BF1" stroke-width="10"></path>
        <circle fill="#A88BF1" cx="70" cy="110" r="10"></circle>
        <circle fill="#A88BF1" cx="130" cy="110" r="10"></circle>
        <circle fill="#A88BF1" cx="70" cy="170" r="10"></circle>
        <circle fill="#A88BF1" cx="130" cy="170" r="10"></circle>
        <path d="M352.04,183.8 C352.04,190.12 350.92,195.76 348.68,200.72 C346.44,205.68 343.24,209.84 339.08,213.2 C334.92,216.56 329.96,219.08 324.2,220.76 C318.44,222.44 312.2,223.28 305.48,223.28 C298.76,223.28 292.52,222.44 286.76,220.76 C281,219.08 276.04,216.56 271.88,213.2 C267.72,209.84 264.52,205.68 262.28,200.72 C260.04,195.76 258.92,190.12 258.92,183.8 L258.92,128 L279.08,128 L279.08,182.36 C279.08,186.04 279.64,189.4 280.76,192.44 C281.88,195.48 283.48,198.08 285.56,200.24 C287.64,202.4 290.16,204.04 293.12,205.16 C296.08,206.28 299.4,206.84 303.08,206.84 C306.92,206.84 310.32,206.28 313.28,205.16 C316.24,204.04 318.76,202.4 320.84,200.24 C322.92,198.08 324.52,195.48 325.64,192.44 C326.76,189.4 327.32,186.04 327.32,182.36 L327.32,128 L347.48,128 L347.48,183.8 L352.04,183.8 Z M394.36,222.32 C389.08,222.32 384.28,221.52 379.96,219.92 C375.64,218.32 371.96,216.08 368.92,213.2 C365.88,210.32 363.52,206.84 361.84,202.76 C360.16,198.68 359.32,194.12 359.32,189.08 L359.32,128 L379.48,128 L379.48,187.64 C379.48,190.68 379.92,193.4 380.8,195.8 C381.68,198.2 382.92,200.2 384.52,201.8 C386.12,203.4 388.04,204.6 390.28,205.4 C392.52,206.2 394.96,206.6 397.6,206.6 C400.24,206.6 402.68,206.2 404.92,205.4 C407.16,204.6 409.08,203.4 410.68,201.8 C412.28,200.2 413.52,198.2 414.4,195.8 C415.28,193.4 415.72,190.68 415.72,187.64 L415.72,128 L435.88,128 L435.88,189.08 C435.88,194.12 435.04,198.68 433.36,202.76 C431.68,206.84 429.32,210.32 426.28,213.2 C423.24,216.08 419.56,218.32 415.24,219.92 C410.92,221.52 406.12,222.32 400.84,222.32 L394.36,222.32 Z M480.76,222.32 C474.44,222.32 468.68,221.24 463.48,219.08 C458.28,216.92 453.84,213.88 450.16,209.96 C446.48,206.04 443.64,201.36 441.64,195.92 C439.64,190.48 438.64,184.4 438.64,177.68 C438.64,170.96 439.64,164.88 441.64,159.44 C443.64,154 446.48,149.32 450.16,145.4 C453.84,141.48 458.28,138.44 463.48,136.28 C468.68,134.12 474.44,133.04 480.76,133.04 C487.08,133.04 492.84,134.12 498.04,136.28 C503.24,138.44 507.68,141.48 511.36,145.4 C515.04,149.32 517.88,154 519.88,159.44 C521.88,164.88 522.88,170.96 522.88,177.68 C522.88,184.4 521.88,190.48 519.88,195.92 C517.88,201.36 515.04,206.04 511.36,209.96 C507.68,213.88 503.24,216.92 498.04,219.08 C492.84,221.24 487.08,222.32 480.76,222.32 Z M480.76,206.6 C484.44,206.6 487.76,205.92 490.72,204.56 C493.68,203.2 496.2,201.28 498.28,198.8 C500.36,196.32 501.96,193.36 503.08,189.92 C504.2,186.48 504.76,182.4 504.76,177.68 C504.76,172.96 504.2,168.88 503.08,165.44 C501.96,162 500.36,159.04 498.28,156.56 C496.2,154.08 493.68,152.16 490.72,150.8 C487.76,149.44 484.44,148.76 480.76,148.76 C477.08,148.76 473.76,149.44 470.8,150.8 C467.84,152.16 465.32,154.08 463.24,156.56 C461.16,159.04 459.56,162 458.44,165.44 C457.32,168.88 456.76,172.96 456.76,177.68 C456.76,182.4 457.32,186.48 458.44,189.92 C459.56,193.36 461.16,196.32 463.24,198.8 C465.32,201.28 467.84,203.2 470.8,204.56 C473.76,205.92 477.08,206.6 480.76,206.6 Z M540.28,221.36 L540.28,128 L560.44,128 L560.44,207.08 L606.2,207.08 L606.2,221.36 L540.28,221.36 Z M618.12,221.36 L618.12,128 L676.36,128 L676.36,142.28 L638.28,142.28 L638.28,166.4 L673.24,166.4 L673.24,180.68 L638.28,180.68 L638.28,207.08 L676.36,207.08 L676.36,221.36 L618.12,221.36 Z M690.52,221.36 L690.52,128 L710.68,128 L710.68,221.36 L690.52,221.36 Z M751.4,222.32 C746.12,222.32 741.32,221.52 737,219.92 C732.68,218.32 729,216.08 725.96,213.2 C722.92,210.32 720.56,206.84 718.88,202.76 C717.2,198.68 716.36,194.12 716.36,189.08 L716.36,128 L736.52,128 L736.52,187.64 C736.52,190.68 736.96,193.4 737.84,195.8 C738.72,198.2 739.96,200.2 741.56,201.8 C743.16,203.4 745.08,204.6 747.32,205.4 C749.56,206.2 752,206.6 754.64,206.6 C757.28,206.6 759.72,206.2 761.96,205.4 C764.2,204.6 766.12,203.4 767.72,201.8 C769.32,200.2 770.56,198.2 771.44,195.8 C772.32,193.4 772.76,190.68 772.76,187.64 L772.76,128 L792.92,128 L792.92,189.08 C792.92,194.12 792.08,198.68 790.4,202.76 C788.72,206.84 786.36,210.32 783.32,213.2 C780.28,216.08 776.6,218.32 772.28,219.92 C767.96,221.52 763.16,222.32 757.88,222.32 L751.4,222.32 Z M822.44,221.36 L822.44,142.28 L798.32,142.28 L798.32,128 L866.72,128 L866.72,142.28 L842.6,142.28 L842.6,221.36 L822.44,221.36 Z M877.72,221.36 L877.72,128 L935.96,128 L935.96,142.28 L897.88,142.28 L897.88,166.4 L932.84,166.4 L932.84,180.68 L897.88,180.68 L897.88,207.08 L935.96,207.08 L935.96,221.36 L877.72,221.36 Z" fill="#A88BF1" fill-rule="nonzero"></path>
    </g>
</svg>
